# xmcd CD database file
#
# Track frame offsets:
#	150
#	12502
#	48721
#	58437
#	90781
#	113238
#	139805
#
# Disc length: 2465 seconds
#
# Revision: 0
# Processed by: cddbd v1.5.1PL2 Copyright (c) Steve Scherf et al.
# Submitted via: CDex 1.51
#
DISCID=5f099f07
DTITLE=Philip  - Seared Circuit Incident
DYEAR=2006
DGENRE=Jazz
TTITLE0=Crow
TTITLE1=Frogs
TTITLE2=School
TTITLE3=Coyotes
TTITLE4=Bats
TTITLE5=Moms
TTITLE6=Pravda
EXTD=YEAR: 2006
EXTT0=
EXTT1=
EXTT2=
EXTT3=
EXTT4=
EXTT5=
EXTT6=
PLAYORDER=
